<?xml version="1.0" encoding="UTF-8"?>
<svg width="128px" height="40px" viewBox="0 0 128 40" version="1.1" xmlns="http://www.w3.org/2000/svg" xmlns:xlink="http://www.w3.org/1999/xlink">
    <!-- Generator: Sketch 52.6 (67491) - http://www.bohemiancoding.com/sketch -->
    <title>logo</title>
    <desc>Created with Sketch.</desc>
    <g id="Page-1" stroke="none" stroke-width="1" fill="none" fill-rule="evenodd">
        <g id="logo" transform="translate(-1.000000, -9.000000)" fill="#FFFFFF" fill-rule="nonzero">
            <path d="M18.7868339,44.1385826 C18.5830722,44.1385826 18.338558,44.0976378 18.094044,44.0976378 C16.3009405,44.0976378 14.5893417,43.5244093 13.0407524,42.623622 C12.5517242,42.3370078 12.1442007,42.0913386 11.8589342,41.7228346 C11.4921631,41.2724409 11.2884012,40.8220473 11.3699059,40.3716535 C11.4514107,39.9622047 11.6959248,39.5527559 12.1442007,39.2251968 C12.6332289,38.8976378 13.1630095,38.6929133 13.6927901,38.4881889 C14.9968653,37.9968503 16.4639499,37.5874016 18.1755487,37.2188976 C21.3949844,36.5228346 24.4106583,36.5228346 27.3448276,36.1952756 C27.7115988,36.1543307 28.1191223,36.1543307 28.3228841,35.8267716 C28.4858934,35.5401575 28.3228841,35.1307086 28.1191223,34.7622047 C27.7523512,34.0661416 27.1410659,33.5748031 26.6927901,33.2062991 C25.877743,32.551181 24.9404389,32.0188976 23.7586207,31.4456692 C21.8840126,30.5448818 19.7648903,29.7669292 17.3605016,29.0708662 C15.5266458,28.5385826 13.6927901,28.047244 11.8589342,27.5149606 L8.47648907,26.5732283 C7.21316618,26.2047244 5.70532918,25.7952756 4.31974925,25.0992126 C3.74921633,24.8125984 3.05642636,24.4440945 2.5266458,23.8708662 C1.83385583,23.0929133 1.63009407,22.2330708 2.07836993,21.2503937 C2.28213169,20.7999999 2.56739815,20.3905511 2.93416931,20.0220473 C3.26018811,19.6944882 3.70846398,19.2440945 4.19749219,18.8346456 C5.54231977,17.6881889 7.13166147,16.8283464 8.31347964,16.1732283 C11.4106583,14.4535433 14.8746082,12.9385826 19.1536051,11.3417322 C23.5956114,9.66299206 27.7931036,8.5574803 32.031348,7.65669286 C33.9467085,7.24724404 35.6990596,7.00157475 37.4106583,6.8787401 C38.429467,6.79685034 39.4890282,6.71496058 40.5485893,6.71496058 L41.4858934,6.71496058 C42.6677116,6.71496058 44.094044,6.91968499 45.4796238,7.3291338 C46.3354233,7.5748031 47.0282131,7.90236215 47.6802508,8.35275589 C48.9843261,9.25354328 49.5956114,10.8913386 49.1065831,12.4062991 C48.862069,13.1842519 48.4545455,13.8803149 47.9655173,14.6582677 C47.5172414,15.3543307 46.9874608,16.0094488 46.2539186,16.7464567 C44.2978057,18.7118111 42.2601881,20.3905511 40.4670846,21.7417322 C37.5736678,23.9527559 34.3949844,25.8362205 31.9498432,27.8015748 L31.7460815,27.9653542 C31.5423198,28.1291338 31.4200627,28.2519684 31.1755487,28.3748031 C30.8902821,28.5385826 30.6050157,28.7842519 30.4827587,29.2346456 C30.401254,29.5212598 30.2382445,29.7259843 29.6677116,29.7259843 L29.6269592,29.7259843 C29.3416929,29.7259843 29.0971787,29.6031496 28.9749217,29.3574803 C28.8526647,29.1118111 28.893417,28.7842519 29.015674,28.5385826 C29.1379311,28.2929133 29.3416929,28.0881889 29.5454546,27.9244093 C29.9937305,27.5559054 30.4827587,27.2283464 31.0125393,26.8598425 C33.5799373,25.0992126 36.6363637,23.0519684 39.6112853,20.759055 C41.6896551,19.1622047 43.1974922,17.8929133 44.5830722,16.5417322 C45.5203762,15.6409448 46.2539186,14.8629921 46.7836991,14.0850394 C47.231975,13.4299213 47.5172414,12.8976378 47.7210032,12.3244093 C48.169279,11.0141731 47.8432602,9.99055111 46.7021944,9.29448821 C45.7648903,8.72125983 44.7460815,8.47559054 43.8087774,8.31181101 C42.6677116,8.10708656 41.5266458,8.06614168 40.2633229,8.06614168 L39.8557994,8.06614168 C37.5329155,8.06614168 34.9655173,8.39370078 31.7460815,9.04881888 C25.062696,10.3999999 18.2570533,12.815748 11.6144201,15.9685039 C10.0658307,16.7055118 8.59874612,17.4834645 7.21316618,18.343307 C6.47962385,18.7937007 5.58307213,19.3669292 4.76802511,20.1039369 C4.48275866,20.3496063 4.03448279,20.759055 3.70846398,21.1685039 C3.34169282,21.6598425 3.21943576,22.0283464 3.26018811,22.3968503 C3.30094047,22.847244 3.70846398,23.1748031 4.03448279,23.3795274 C4.3605016,23.5842519 4.76802511,23.7889763 5.29780568,24.0346456 C6.5203762,24.607874 7.78369909,24.9763779 9.00626962,25.3448818 L12.4702194,26.327559 C14.3040753,26.8598425 16.1786834,27.3102361 18.0125393,27.8834645 C20.0094043,28.4976378 21.9247649,29.2346456 23.7178684,29.9716535 C24.7366772,30.3811024 25.4702194,30.831496 26.2037618,31.2409448 C26.6520377,31.4866141 27.0188088,31.7322835 27.3448276,31.9779527 C28.7304075,33.0425197 29.5862069,34.1889763 29.7899686,35.5401575 C29.8714734,36.0724409 30.1974922,36.359055 30.6865204,36.3999999 C31.3793104,36.4409448 32.031348,36.6456692 32.6018809,36.8913386 C33.5799373,37.3007873 34.1097178,38.0787401 34.3949844,39.143307 C34.4764891,39.4299213 34.4764891,39.6346456 34.3542321,39.8803149 C34.1912226,40.207874 33.9467085,40.2897637 33.8244514,40.2897637 L33.7836991,40.2897637 C33.539185,40.2897637 33.3761756,40.1669292 33.2539186,39.9212598 C33.1724139,39.7574803 33.1316615,39.5527559 33.0909091,39.3889763 C32.9278997,38.7338582 32.5611286,38.2834645 31.9090909,38.0377952 C31.5015675,37.8740157 31.0532916,37.7102361 30.645768,37.7102361 L30.2789969,37.7102361 C29.7899686,37.7102361 29.4231975,37.9149606 29.1786834,38.4062991 C28.8119123,39.1842519 28.2413794,39.8803149 27.4263323,40.6173228 C26.2852665,41.6409448 24.9811913,42.4598425 23.5956114,43.0740157 C22.0062696,43.7700787 20.3761756,44.1385826 18.7868339,44.1385826 Z M18.338558,42.7874016 C18.4608151,42.7874016 18.5830722,42.7464567 18.7053292,42.7464567 L18.9905956,42.7464567 C22.4545455,42.7464567 25.5924766,40.8629921 27.0595611,39.1023621 C27.2633229,38.8566929 27.4670846,38.6110235 27.5893417,38.3653542 C27.6708464,38.2015748 27.7115988,38.0377952 27.630094,37.8740157 C27.5485893,37.751181 27.4263323,37.6283464 27.2225706,37.5874016 C27.0188088,37.5464567 26.7742948,37.5464567 26.5705329,37.5464567 C25.6332289,37.5464567 24.6959248,37.7102361 23.799373,37.7102361 L23.5956114,37.7102361 C21.0689655,37.7102361 18.5423198,38.3653542 16.0971787,39.0614172 C15.3636364,39.2661416 14.4263323,39.5527559 13.4890282,40.0031496 C13.1630095,40.1669292 12.9592477,40.3716535 12.9592477,40.6173228 C12.9592477,40.8629921 13.1222571,41.0267716 13.4482758,41.2724409 C13.7742948,41.5181102 14.1410659,41.6818897 14.507837,41.8456692 C15.893417,42.4598425 17.1567399,42.7874016 18.338558,42.7874016 Z M55.1070889,31.6044702 C55.1294256,31.5788333 55.1531669,31.5531961 55.1786834,31.527559 C55.3009405,31.4456692 55.4639499,31.3637795 55.6269592,31.3637795 C55.7492163,31.3637795 55.8714734,31.4047244 55.9529782,31.4866141 C56.1567399,31.6094488 56.2382445,31.9370078 56.1974922,32.1826771 C56.1159875,32.4283464 55.9529782,32.6740157 55.7899686,32.919685 L55.6677116,33.0834645 C55.5454546,33.2881889 55.3824452,33.4929133 55.2601881,33.6566929 L54.6489028,34.5984252 C54.5266458,34.7622047 54.4858934,35.0488188 54.6489028,35.2535433 C54.8119123,35.4173228 55.015674,35.4173228 55.0971787,35.4173228 C55.1379311,35.4173228 55.2194357,35.4173228 55.2601881,35.3763779 L56.9717869,34.7622047 L58.5203762,34.1889763 L61.1285266,33.2881889 C61.8213167,33.0425197 62.554859,32.8377952 63.2884012,32.7149606 C63.5329155,32.6740157 63.7774295,32.6740157 64.0219436,32.6740157 L64.1034483,32.6740157 C64.7962383,32.6740157 65.2037618,33.0425197 65.3260188,33.6976378 C65.3667712,33.8204723 65.3667712,33.943307 65.3667712,34.1070865 L65.3667712,34.3118111 C65.3667712,34.5165354 65.3260188,34.7622047 65.2445141,35.007874 L65.1222571,35.4992126 L65.1222571,35.5401575 C65.0815048,35.7039369 65.0407524,35.9496063 65.2445141,36.1543307 C65.3667712,36.2771654 65.5297805,36.3181102 65.6520377,36.3181102 C65.8150471,36.3181102 65.9373041,36.2771654 66.0595611,36.2362205 C66.0595611,36.2362205 66.2225706,36.1543307 66.2633229,36.1133858 L66.5485893,35.9905511 L68.2194357,35.2535433 L71.7648903,33.6566929 L73.1912226,33.0425197 C73.3139002,32.9932169 73.4513498,32.9587556 73.5946775,32.9391363 C74.5211389,31.9825656 75.9424787,31.1999999 77.2664577,31.1999999 C77.5109718,31.1999999 77.7147336,31.2409448 77.9184953,31.2818897 C78.3260188,31.3637795 78.6112853,31.4866141 78.8965518,31.6094488 C79.1003135,31.6913386 79.3040753,31.7732283 79.4670846,31.7732283 C79.7523512,31.7732283 79.9968653,31.6503937 80.2413794,31.3637795 C80.4451411,31.1181102 80.6896551,30.9133858 80.9341694,30.6677165 C81.3009405,30.2992126 81.5862068,29.9716535 81.9122258,29.6031496 C83.4200624,27.9244093 84.8871473,26.2047244 86.4357366,24.5259843 C87.2507837,23.6251968 87.9843258,22.6834645 88.8808782,21.7826771 L89.4106583,21.2503937 C89.5329151,21.127559 89.6959245,21.0866141 89.8181823,21.0866141 C90.1034485,21.0866141 90.3072098,21.2503937 90.4294674,21.5370078 C90.5109718,21.7007873 90.5109718,21.8645669 90.3887148,22.0283464 C90.062696,22.4787401 89.7366771,22.9291338 89.3699057,23.3385826 L87.8213164,25.1811024 C87.1692787,25.9181102 86.5172418,26.6960629 85.9059565,27.4740157 C84.5611285,29.1937007 83.3793107,30.7905511 82.401254,32.4692912 C82.0752352,33.0425197 81.6269594,33.7385826 81.3824448,34.4755905 C81.3009405,34.7212598 81.2194357,34.9669292 81.260188,35.2535433 C81.3009405,35.5401575 81.5047025,35.7448818 81.7492162,35.7448818 L81.8714732,35.7448818 C81.9937308,35.7448818 82.1567395,35.7039369 82.2789972,35.6629921 C84.5611285,34.8850394 87.9435741,33.615748 89.5736677,32.7968503 L89.6551727,32.7559054 C89.8483601,32.6588552 89.9906695,32.5618052 90.162497,32.5253374 C91.210197,31.8724735 92.3727635,31.527559 93.6081501,31.527559 C94.2194351,31.527559 94.7899689,31.6913386 95.2789974,32.0188976 C95.6457682,32.2645669 95.9717869,32.4283464 96.4200621,32.4283464 L96.6645773,32.4283464 C96.7053295,32.3874016 96.7460817,32.3874016 96.7868339,32.3874016 C97.0313472,32.3874016 97.194357,32.5102361 97.3166146,32.7149606 C97.4796244,32.919685 97.4796244,33.2062991 97.3573668,33.4519684 C97.1536057,33.8614172 96.9905959,34.3527559 96.8683393,34.8031496 C96.7868339,35.0488188 96.8275861,35.2944882 96.9905959,35.4582677 C97.1128526,35.6629921 97.3166146,35.7448818 97.601881,35.7448818 L97.7241376,35.7448818 C98.4576803,35.6220473 99.1912229,35.4582677 99.8432602,35.2125984 C101.025078,34.8031496 102.125392,34.2299213 103.103448,33.6566929 C103.877743,33.247244 104.489028,32.9606299 105.059561,32.6740157 C105.17003,32.6185205 105.27218,32.5713827 105.366012,32.5326024 C105.548795,31.9893942 105.818818,31.4578231 106.200627,30.9543307 C106.322884,30.7905511 106.485893,30.7086614 106.648903,30.7086614 C106.934169,30.7086614 107.178684,30.8724409 107.30094,31.159055 C107.341693,31.3228346 107.30094,31.4866141 107.219435,31.7322835 C107.137931,31.8960629 107.056426,32.0188976 107.015674,32.1826771 C106.852665,32.4692912 106.730408,32.7968503 106.60815,33.0834645 C106.526646,33.3291338 106.526646,33.5338582 106.648903,33.6976378 C106.689655,33.8204723 106.852665,33.9842519 107.219435,34.0251968 L107.545455,34.0251968 C108.15674,34.0251968 108.727273,33.8614172 109.297805,33.7385826 L109.379311,33.6976378 C110.275862,33.4929133 111.050157,33.1653542 111.702194,32.8377952 L112.639498,32.3874016 C113.128527,32.1826771 113.617555,31.9370078 114.106583,31.7322835 C114.55486,31.527559 115.084639,31.3228346 115.61442,31.1999999 C115.736677,31.159055 115.858934,31.159055 115.981192,31.159055 C116.633228,31.159055 117.040752,31.5685039 117.081504,32.2645669 C117.122257,32.5921259 117.081504,32.9606299 117.081504,33.3291338 C117.081504,33.4929133 117.040752,33.6566929 117.040752,33.8204723 L117.040752,33.943307 C117,34.1070865 116.959248,34.3937007 117.203762,34.6393701 L117.285266,34.7212598 L117.407523,34.7622047 L117.529781,34.7622047 C117.815047,34.7622047 118.059561,34.6393701 118.304075,34.5574803 C118.38558,34.5165354 118.467085,34.5165354 118.507837,34.4755905 C120.993731,33.6976378 123.642633,32.8787401 126.413793,32.4283464 C126.821316,32.3464567 127.147336,32.3055118 127.473354,32.3055118 L127.514107,32.3055118 C127.92163,32.3464567 128.206896,32.551181 128.247649,32.919685 C128.288401,33.247244 128.043887,33.5748031 127.677116,33.6976378 L127.432601,33.6976378 C126.006269,33.6976378 124.661442,34.1070865 123.316615,34.4755905 L122.949844,34.5574803 C121.238244,35.007874 119.485893,35.5401575 117.366772,36.3181102 C116.470219,36.6456692 115.940439,37.1779527 115.61442,38.0377952 C115.043887,39.5118111 114.310345,40.9448818 113.169279,42.3370078 C112.191223,43.5244093 111.213166,44.3842519 110.112853,45.0393701 C109.583072,45.3259843 109.134796,45.4488188 108.68652,45.4488188 L108.645768,45.4488188 C107.789969,45.4488188 107.260188,44.9165354 107.260188,44.015748 C107.219435,43.5244093 107.382445,42.9921259 107.545455,42.5826771 C107.830721,41.8456692 108.238244,41.1496063 108.84953,40.4125984 C109.623824,39.4708662 110.520376,38.6110235 111.661442,37.8740157 C112.639498,37.1779527 113.495297,36.6866141 114.351098,36.2771654 C115.655173,35.5811024 115.818182,33.4929133 115.573668,33.0015748 L115.492163,32.8377952 L115.206896,32.8377952 C114.758621,32.8377952 114.432601,33.0015748 114.147336,33.1653542 C114.025078,33.247244 113.902821,33.2881889 113.821316,33.3291338 C113.332288,33.5338582 112.84326,33.7385826 112.394984,33.9842519 C111.987461,34.1480314 111.579938,34.3118111 111.213166,34.5165354 C110.235109,34.9259843 109.175549,35.1716535 107.830721,35.3763779 L107.382445,35.3763779 C106.934169,35.3763779 106.526646,35.335433 106.119122,35.1716535 C105.53654,34.9765419 105.185303,34.626472 105.106239,34.1214436 C104.664779,34.3438632 104.230509,34.5735063 103.796238,34.8031496 C102.695924,35.4173228 101.514107,36.031496 100.291536,36.4818897 C99.1912229,36.8913386 98.2539192,37.055118 97.3166146,37.055118 C96.6238241,37.055118 96.1347957,36.8913386 95.8087771,36.4409448 C95.605016,36.1133858 95.4827584,35.7448818 95.3605018,35.2125984 L95.3197486,34.9669292 L95.0752354,34.9669292 C94.5862069,35.007874 94.3009405,35.1716535 94.0564263,35.335433 L93.8526652,35.4582677 L93.7304076,35.5401575 C92.7931038,36.031496 91.8557997,36.5228346 90.8777432,36.8503937 C90.266458,37.055118 89.6959245,37.2188976 89.2068963,37.3417322 C89.003135,37.3826771 88.8401256,37.423622 88.6771162,37.423622 C88.4326016,37.423622 88.1473352,37.3417322 87.9435741,37.2598425 C87.4137933,37.0141731 87.2100313,36.6866141 87.2100313,36.1543307 C87.2100313,35.8898801 87.2631558,35.6521171 87.3694039,35.4410418 C85.4972488,36.2458871 83.5451857,36.8316091 82.2382446,37.055118 C81.9937308,37.0960629 81.7899688,37.1370078 81.5454542,37.1370078 L81.5047025,37.1370078 C80.9749217,37.1370078 80.5266458,36.8913386 80.2413794,36.5637795 C79.9561129,36.2362205 79.8338559,35.8677165 79.8338559,35.4992126 C79.8338559,35.2944882 79.8746082,35.1307086 79.8746082,34.9259843 L79.8746082,34.6803149 C79.9153606,34.5574803 79.8746082,34.4346456 79.7931036,34.3118111 C79.7523512,34.2299213 79.630094,34.1889763 79.507837,34.1889763 C79.4670846,34.1889763 79.38558,34.1480314 79.3448276,34.1889763 L79.3040753,34.2299213 C79.3040753,34.2299213 79.0188088,34.3937007 78.9373041,34.4755905 C78.7335424,34.6803149 78.4482758,34.8031496 78.2037618,34.9669292 C77.1442007,35.6629921 76.1661442,36.359055 75.0658307,36.6456692 C74.6175549,36.7685039 74.2507837,36.8503937 73.9247649,36.8503937 L73.8025079,36.8503937 C73.1912226,36.8503937 72.8652038,36.5228346 72.6206897,35.9086614 C72.4723155,35.5508807 72.4535922,35.1931 72.548785,34.772083 C71.8992572,35.0484788 71.2686703,35.3419177 70.6645768,35.6220473 L68.5047022,36.6047244 L67.0376176,37.2188976 L66.0188088,37.7102361 C65.6927901,37.8330708 65.3667712,37.9559054 65,37.9968503 L64.7962383,37.9968503 C64.3479624,37.9968503 63.9811913,37.8740157 63.7774295,37.5874016 C63.5329155,37.3007873 63.4106583,36.8913386 63.4921631,36.3999999 L63.7366772,35.5401575 C63.7774295,35.335433 63.8181818,35.1716535 63.8589342,35.007874 C63.9404389,34.6803149 63.8589342,34.4755905 63.7774295,34.3527559 C63.6959248,34.2299213 63.5329155,34.1070865 63.2884012,34.1070865 C63.2068965,34.1070865 63.1253919,34.1480314 63.0846395,34.1480314 C62.4733543,34.2708662 62.0250784,34.3937007 61.6175549,34.5165354 C60.5579938,34.8850394 59.4984326,35.2944882 58.4796238,35.6629921 L56.4420063,36.3999999 C56.0752352,36.5228346 55.7492163,36.6456692 55.3824452,36.7685039 C55.1379311,36.8094488 54.893417,36.8913386 54.6489028,36.9732283 C54.4043887,37.055118 54.1598746,37.0960629 53.8338559,37.0960629 L53.507837,37.0960629 C53.1818183,37.0960629 52.9373041,36.9732283 52.7742948,36.7685039 C52.6112853,36.5637795 52.5297805,36.2771654 52.5705329,35.9496063 C52.6112853,35.7039369 52.7335424,35.4173228 52.8150471,35.2535433 C53.0079766,34.7550946 53.2381867,34.2941025 53.5056768,33.8579005 C52.0649759,34.5035665 50.5865463,35.2250453 49.1473354,35.8677165 C48.4137932,36.2362205 47.5987461,36.5637795 46.7429468,36.6456692 L46.1724139,36.6456692 C46.0094043,36.6456692 45.846395,36.6456692 45.6833856,36.6047244 C44.9905956,36.4818897 44.216301,35.9905511 44.216301,34.3937007 C44.216301,33.8204723 44.338558,33.4929133 44.1755487,33.3291338 C43.8495297,33.0015748 43.4827587,33.247244 42.9122258,33.4519684 L42.830721,33.4929133 C42.4639499,33.615748 42.1379311,33.7385826 41.7711599,33.9023621 L39.4890282,34.7622047 C38.7147336,35.0897637 37.3291536,35.4173228 36.5141067,35.0897637 C35.9028214,34.8440945 35.5360502,34.2299213 35.6583072,33.615748 C35.862069,32.551181 36.3510972,31.527559 37.1661442,30.5448818 C37.2884012,30.4220473 37.4921631,30.2992126 37.6551725,30.2173228 C37.7774295,30.135433 37.8996865,30.0944882 38.0219436,30.0944882 C38.184953,30.0944882 38.3479624,30.1763779 38.5109718,30.3811024 C38.6739813,30.5858267 38.755486,30.9133858 38.429467,31.159055 C37.8996865,31.6913386 37.5736678,32.3055118 37.2884012,32.8377952 C37.2476489,32.9606299 37.2068965,33.0834645 37.2068965,33.1653542 C37.1661442,33.3291338 37.2068965,33.4519684 37.2884012,33.615748 C37.5736678,34.2299213 38.5924766,33.6566929 38.9592477,33.5338582 C40.1003135,33.1653542 41.2413794,32.7149606 42.3009405,32.2645669 L42.7899686,32.0598425 C43.2789969,31.855118 43.8087774,31.6503937 44.338558,31.4866141 C44.5423198,31.4047244 44.7868339,31.3637795 44.9905956,31.3637795 L45.031348,31.3637795 C45.6833856,31.3637795 46.0501567,31.7322835 46.0501567,32.4283464 C46.0501567,32.551181 46.0501567,32.6740157 45.724138,33.9023621 C45.6018809,34.2299213 45.4388715,34.6803149 45.7648903,35.0897637 C45.9278997,35.2944882 46.1724139,35.3763779 46.4576803,35.3763779 C46.7021944,35.3763779 46.9059561,35.2944882 47.1504702,35.2125984 C47.1912226,35.2125984 47.231975,35.1716535 47.2727274,35.1716535 C48.0062696,34.9259843 48.6175549,34.6803149 49.1880878,34.4346456 C50.5736678,33.7795274 52,33.0834645 53.3448276,32.4283464 C53.9153606,32.1826771 54.4451411,31.9370078 54.9749217,31.6503937 C55.015674,31.6503937 55.0564264,31.6094488 55.0971787,31.6094488 L55.1070889,31.6044702 Z M74.6175549,35.335433 C74.6990596,35.335433 74.7398119,35.2944882 74.7805643,35.2944882 C75.9216302,35.2944882 76.9404389,34.4755905 77.7962383,33.615748 L77.9184953,33.4519684 C78,33.3700787 78.1222571,33.1244093 77.9592477,32.8377952 C77.877743,32.7149606 77.7962383,32.6330708 77.6739813,32.5921259 C77.5924766,32.551181 77.4702194,32.5921259 77.429467,32.551181 C77.3887147,32.5102361 77.30721,32.5102361 77.2257053,32.5102361 L77.1034483,32.5102361 C75.7178684,32.5102361 74.6583072,33.4110235 74.0877743,34.5165354 C74.0062696,34.6803149 74.0062696,34.8440945 74.0470219,34.9669292 C74.0877743,35.0897637 74.169279,35.1307086 74.2915361,35.2535433 C74.3322885,35.2944882 74.4952979,35.335433 74.6175549,35.335433 Z M89.6551727,35.7858267 L89.7774297,35.7858267 C89.8996865,35.7858267 90.0219434,35.7448818 90.1849528,35.7039369 C91.2852663,35.2944882 92.4263324,34.7212598 93.8119121,33.943307 L94.0564263,33.7385826 C94.1379307,33.615748 94.1786839,33.4110235 94.0971785,33.247244 C94.0564263,33.0834645 93.8934174,32.9606299 93.7711599,32.919685 C93.6489032,32.919685 93.5266456,32.8787401 93.4451412,32.8787401 L93.2821314,32.8787401 C91.7742947,33.0015748 90.5109718,33.6976378 89.3291539,34.9669292 C89.2476487,35.0488188 89.2068963,35.1716535 89.2068963,35.2944882 C89.2068963,35.3763779 89.2476487,35.4582677 89.2884013,35.5811024 C89.3699057,35.7039369 89.5329151,35.7858267 89.6551727,35.7858267 Z M109.216301,43.8519684 C109.297805,43.8519684 109.379311,43.8519684 109.460815,43.8110235 C109.623824,43.7291338 109.786834,43.647244 109.949844,43.5244093 C111.498432,42.3370078 112.721003,40.8629921 113.576803,39.143307 C113.658307,38.9795274 113.617555,38.8566929 113.53605,38.7338582 C113.495297,38.6519684 113.373041,38.5700787 113.250784,38.5700787 C112.31348,38.5700787 109.990596,40.9448818 109.175549,42.2141731 C109.053292,42.4598425 108.931035,42.7055118 108.84953,42.951181 L108.768026,43.1559054 C108.68652,43.4015748 108.768026,43.6881889 108.971787,43.8110235 C109.053292,43.8519684 109.175549,43.8519684 109.216301,43.8519684 Z" id="Shape" transform="translate(65.046108, 26.081890) rotate(-6.000000) translate(-65.046108, -26.081890) "></path>
        </g>
    </g>
</svg>